<svg width="29" height="22" viewBox="0 0 29 22" fill="none" xmlns="http://www.w3.org/2000/svg">
<path d="M10.5995 20.8956L10.5916 20.8921L10.5668 20.8781C10.4216 20.7955 10.2775 20.7107 10.1347 20.6238C8.41733 19.5685 6.81241 18.3288 5.34656 16.9253C2.75056 14.4205 0 10.7034 0 6.12524C0 2.70915 2.7799 8.27786e-05 6.13518 8.27786e-05C7.06793 -0.00464167 7.9897 0.208152 8.83195 0.622638C9.6742 1.03712 10.4153 1.64264 11 2.39414C11.5849 1.64248 12.3261 1.03688 13.1686 0.622384C14.011 0.207892 14.933 -0.00481735 15.8659 8.27786e-05C19.2201 8.27786e-05 22 2.70915 22 6.12524C22 10.7045 19.2494 14.4216 16.6534 16.9242C15.1876 18.3277 13.5827 19.5674 11.8653 20.6226C11.7225 20.7099 11.5784 20.7951 11.4332 20.8781L11.4084 20.8921L11.4005 20.8968L11.3971 20.8979C11.2748 20.965 11.1384 21 11 21C10.8616 21 10.7252 20.965 10.6029 20.8979L10.5995 20.8956Z" fill="white"/>
<path d="M20.8933 18.9668L24.0833 12.7335H21.8833V8.70012L18.5833 14.9335H20.8933V18.9668ZM21.3333 21.1668C20.3189 21.1668 19.3656 20.9743 18.4733 20.5893C17.5811 20.2043 16.805 19.6818 16.145 19.0218C15.485 18.3618 14.9625 17.5857 14.5775 16.6935C14.1925 15.8012 14 14.8479 14 13.8335C14 12.819 14.1925 11.8657 14.5775 10.9735C14.9625 10.0812 15.485 9.30512 16.145 8.64512C16.805 7.98512 17.5811 7.46262 18.4733 7.07762C19.3656 6.69262 20.3189 6.50012 21.3333 6.50012C22.3478 6.50012 23.3011 6.69262 24.1933 7.07762C25.0856 7.46262 25.8617 7.98512 26.5217 8.64512C27.1817 9.30512 27.7042 10.0812 28.0892 10.9735C28.4742 11.8657 28.6667 12.819 28.6667 13.8335C28.6667 14.8479 28.4742 15.8012 28.0892 16.6935C27.7042 17.5857 27.1817 18.3618 26.5217 19.0218C25.8617 19.6818 25.0856 20.2043 24.1933 20.5893C23.3011 20.9743 22.3478 21.1668 21.3333 21.1668Z" fill="#894189"/>
<path d="M21.2667 18.5001L24.1667 12.8334H22.1667V9.16675L19.1667 14.8334H21.2667V18.5001ZM21.6667 20.5001C20.7444 20.5001 19.8778 20.3251 19.0667 19.9751C18.2556 19.6251 17.55 19.1501 16.95 18.5501C16.35 17.9501 15.875 17.2445 15.525 16.4334C15.175 15.6223 15 14.7556 15 13.8334C15 12.9112 15.175 12.0445 15.525 11.2334C15.875 10.4223 16.35 9.71675 16.95 9.11675C17.55 8.51675 18.2556 8.04175 19.0667 7.69175C19.8778 7.34175 20.7444 7.16675 21.6667 7.16675C22.5889 7.16675 23.4556 7.34175 24.2667 7.69175C25.0778 8.04175 25.7833 8.51675 26.3833 9.11675C26.9833 9.71675 27.4583 10.4223 27.8083 11.2334C28.1583 12.0445 28.3333 12.9112 28.3333 13.8334C28.3333 14.7556 28.1583 15.6223 27.8083 16.4334C27.4583 17.2445 26.9833 17.9501 26.3833 18.5501C25.7833 19.1501 25.0778 19.6251 24.2667 19.9751C23.4556 20.3251 22.5889 20.5001 21.6667 20.5001Z" fill="white"/>
</svg>
